<?xml version="1.0" standalone="no"?>
<!DOCTYPE svg PUBLIC "-//W3C//DTD SVG 20010904//EN"
 "http://www.w3.org/TR/2001/REC-SVG-20010904/DTD/svg10.dtd">
<svg version="1.0" xmlns="http://www.w3.org/2000/svg"
 width="16.000000pt" height="16.000000pt" viewBox="0 0 16.000000 16.000000"
 preserveAspectRatio="xMidYMid meet">
<metadata>
Created by potrace 1.11, written by Peter Selinger 2001-2013
</metadata>
<g transform="translate(0.000000,16.000000) scale(0.008000,-0.008000)"
fill="#000000" stroke="none">
<path d="M832 1986 c-219 -42 -385 -129 -537 -281 -130 -129 -215 -277 -263
-454 -33 -127 -37 -342 -8 -466 90 -385 376 -671 761 -761 116 -27 330 -26
445 3 372 94 649 371 743 743 29 115 30 329 3 445 -88 379 -366 662 -741 756
-105 26 -304 34 -403 15z m118 -261 l0 -175 -125 0 c-69 0 -125 2 -125 5 0 13
47 95 90 160 44 64 146 185 156 185 2 0 4 -79 4 -175z m252 1 c44 -63 98 -156
98 -171 0 -3 -56 -5 -125 -5 l-125 0 0 178 1 177 50 -54 c28 -30 73 -86 101
-125z m-456 97 c-39 -53 -115 -177 -142 -235 l-18 -38 -148 0 c-81 0 -148 3
-148 6 0 12 108 119 160 159 74 56 137 92 223 126 106 42 117 39 73 -18z m613
4 c98 -42 179 -96 264 -176 111 -105 113 -101 -62 -101 l-149 0 -29 63 c-17
34 -60 106 -97 161 l-67 99 32 -7 c18 -3 67 -21 108 -39z m-814 -394 c-17 -45
-46 -187 -57 -280 l-12 -103 -188 0 -188 0 0 25 c0 77 65 296 105 353 16 21
21 22 182 22 153 0 165 -1 158 -17z m405 -183 l0 -200 -185 0 -185 0 0 39 c0
54 27 203 52 289 l21 72 148 0 149 0 0 -200z m413 148 c24 -78 45 -183 53
-271 l7 -77 -187 0 -186 0 0 200 0 200 148 0 148 0 17 -52z m454 -18 c36 -73
69 -187 79 -272 l7 -58 -190 0 -190 0 -12 103 c-10 93 -39 234 -56 280 -7 16
3 17 161 15 l169 -3 32 -65z m-1329 -532 c11 -94 40 -236 57 -281 7 -16 -3
-17 -161 -15 l-169 3 -32 65 c-36 73 -69 187 -79 273 l-7 57 190 0 189 0 12
-102z m462 -98 l0 -200 -149 0 -148 0 -21 73 c-25 85 -52 234 -52 288 l0 39
185 0 185 0 0 -200z m466 123 c-8 -88 -29 -193 -53 -270 l-17 -53 -148 0 -148
0 0 200 0 200 186 0 187 0 -7 -77z m480 20 c-11 -88 -43 -201 -79 -273 l-32
-65 -169 -3 c-158 -2 -168 -1 -161 15 17 46 46 187 56 280 l12 103 190 0 189
0 -6 -57z m-1279 -505 c17 -35 60 -107 97 -162 l67 -99 -32 7 c-52 10 -179 68
-244 111 -64 43 -190 157 -206 187 -9 17 -2 18 140 18 l149 0 29 -62z m333
-115 l-1 -178 -56 60 c-74 80 -193 258 -193 290 0 3 56 5 125 5 l125 0 0 -177z
m350 172 c0 -32 -119 -209 -198 -295 l-51 -55 -1 178 0 177 125 0 c69 0 125
-2 125 -5z m401 -12 c-18 -35 -138 -142 -214 -191 -73 -48 -218 -112 -251
-112 -10 0 8 34 51 98 36 53 79 125 96 160 l29 62 149 0 c139 0 149 -1 140
-17z"/>
</g>
</svg>
